<svg xmlns="http://www.w3.org/2000/svg" viewBox="0 0 32 32" aria-hidden="true" role="img">
  <defs>
    <radialGradient id="fg-sphere" cx="38%" cy="28%" r="65%">
      <stop offset="0%" stop-color="#f5d88a"/>
      <stop offset="45%" stop-color="#E9C46A"/>
      <stop offset="75%" stop-color="#2A9D8F"/>
      <stop offset="100%" stop-color="#1a5f55"/>
    </radialGradient>
    <linearGradient id="t-3d" x1="0%" y1="0%" x2="0%" y2="100%">
      <stop offset="0%" stop-color="#ffffff"/>
      <stop offset="100%" stop-color="#c8c8c8"/>
    </linearGradient>
    <radialGradient id="dot-3d" cx="35%" cy="30%" r="60%">
      <stop offset="0%" stop-color="#ffffff"/>
      <stop offset="100%" stop-color="#b8b8b8"/>
    </radialGradient>
    <filter id="drop-3d" x="-40%" y="-40%" width="180%" height="180%">
      <feDropShadow dx="0" dy="3" stdDeviation="2" flood-color="#1a3d38" flood-opacity="0.5"/>
    </filter>
  </defs>
  <!-- 3D sphere -->
  <circle cx="16" cy="16" r="14" fill="url(#fg-sphere)" filter="url(#drop-3d)"/>
  <!-- Sphere highlight -->
  <ellipse cx="12" cy="11" rx="4" ry="2.5" fill="rgba(255,255,255,0.3)"/>
  <!-- T shadow -->
  <path d="M10 8h12v3H10V8zm5 3v13h-2V11h2z" fill="rgba(0,0,0,0.25)" transform="translate(1,1)"/>
  <!-- 3D T -->
  <path d="M10 8h12v3H10V8zm5 3v13h-2V11h2z" fill="url(#t-3d)"/>
  <!-- 3D dots -->
  <circle cx="12" cy="20" r="1.5" fill="url(#dot-3d)"/>
  <ellipse cx="12" cy="19.2" rx="1" ry="0.5" fill="rgba(255,255,255,0.6)"/>
  <circle cx="20" cy="20" r="1.5" fill="url(#dot-3d)"/>
  <ellipse cx="20" cy="19.2" rx="1" ry="0.5" fill="rgba(255,255,255,0.6)"/>
</svg>
