<svg version="1.1" id="Layer_1" xmlns="http://www.w3.org/2000/svg" xmlns:xlink="http://www.w3.org/1999/xlink" x="0px" y="0px"
	 width="100%" viewBox="0 0 1024 1024" enable-background="new 0 0 1024 1024" xml:space="preserve">
<path fill="#F6F5F4" opacity="1.000000" stroke="none" 
	d="
M703.783813,478.156342 
	C705.362610,477.935059 706.696472,478.307587 707.938660,477.551727 
	C721.231567,469.463165 735.645569,463.522369 749.237976,456.000153 
	C754.116699,453.300232 759.391724,451.413330 764.205750,448.465210 
	C767.278931,446.583130 768.037781,449.310608 768.027466,451.999756 
	C767.996887,459.997986 768.019287,467.996429 768.019653,475.994781 
	C768.020264,488.492279 768.056641,500.989868 768.010071,513.487183 
	C767.958191,527.403687 766.011780,541.053528 763.367371,554.734619 
	C761.833557,562.669678 760.184875,570.599121 757.828064,578.230347 
	C754.134094,590.191345 749.858887,601.964661 744.515076,613.418030 
	C737.976685,627.431824 730.291504,640.712952 721.935547,653.603394 
	C716.258057,662.361633 709.713562,670.575134 702.988342,678.623962 
	C693.396973,690.102722 683.134949,700.939392 672.260681,711.158447 
	C656.530273,725.940979 639.917419,739.682800 622.167603,752.031494 
	C602.822021,765.490234 582.902832,778.054016 562.136963,789.147278 
	C552.733826,794.170410 543.267273,799.191956 533.419800,803.454712 
	C528.344238,805.651855 523.396851,808.371643 518.402039,810.874329 
	C514.841370,812.658447 511.173889,812.633240 507.596832,810.884338 
	C495.114960,804.781860 482.675903,798.598633 470.291809,792.294922 
	C459.109863,786.603088 448.218048,780.446228 437.523499,773.978760 
	C422.732605,765.033936 408.374084,755.406555 394.441162,745.111877 
	C373.819946,729.875427 354.730957,712.938110 337.073853,694.432373 
	C325.764893,682.579895 315.446075,669.830505 305.990051,656.390198 
	C295.763031,641.854126 287.170929,626.406372 279.835541,610.280579 
	C275.820923,601.455017 272.706177,592.246887 269.839355,582.934448 
	C267.007111,573.734375 264.113037,564.593384 262.527588,555.087646 
	C261.114105,546.612854 259.468201,538.216614 258.843079,529.574097 
	C257.016693,504.323883 258.527618,479.067444 258.003143,453.822449 
	C257.862335,447.045319 258.152557,447.051727 263.939362,449.931885 
	C275.938263,455.903870 288.090759,461.567810 300.076477,467.565460 
	C312.069061,473.566589 323.679382,480.400299 335.927429,485.803162 
	C348.681580,491.429230 360.546539,498.736633 373.359833,504.242828 
	C384.012543,508.820618 392.301117,516.747009 400.804932,524.731201 
	C413.231293,536.398315 424.753540,548.966431 437.486053,560.342712 
	C450.576904,572.039062 462.480286,585.060425 474.977783,597.426697 
	C480.194977,602.589111 486.529358,605.419800 493.909790,606.030823 
	C496.922119,606.280212 498.985046,604.089661 501.724945,603.589355 
	C503.616119,603.244019 502.338318,601.031250 501.758698,600.541260 
	C494.208466,594.158386 487.696716,586.719727 480.562988,579.919800 
	C477.603699,577.099060 474.536774,574.351013 471.901581,571.245117 
	C470.222168,569.265625 470.159424,566.495361 472.042450,564.523926 
	C478.268402,558.005737 485.592194,552.605469 491.258087,545.467834 
	C492.238831,544.232361 494.112122,543.192566 496.735321,545.702393 
	C504.580505,553.208496 512.153381,560.984863 519.904175,568.580322 
	C525.697998,574.257996 531.042725,580.408813 537.002258,585.898560 
	C542.938171,591.366455 549.689087,590.619629 554.746094,584.806213 
	C556.269897,583.054382 556.391174,581.826904 554.698547,580.198975 
	C544.435303,570.328125 534.047424,560.576965 524.065979,550.427124 
	C519.416504,545.699158 514.903198,540.849976 509.930878,536.451965 
	C506.559052,533.469604 506.482330,530.244995 510.006805,527.570129 
	C516.918945,522.324402 522.450623,515.679199 528.675903,509.742950 
	C530.172058,508.316284 531.047913,507.475311 533.068726,509.320496 
	C534.466858,510.597107 536.173401,511.655365 537.561401,513.044006 
	C552.050293,527.539734 566.533386,542.041321 581.036194,556.523193 
	C585.616638,561.097046 589.866211,561.838135 595.383911,559.129883 
	C599.739807,556.991882 600.452759,553.273987 597.187927,549.742554 
	C587.475159,539.236633 577.250793,529.248596 566.924561,519.346313 
	C556.645020,509.488800 546.728516,499.252655 536.653870,489.181519 
	C530.600159,483.129913 530.546936,483.065308 524.332764,488.350037 
	C507.025635,503.068512 486.687317,508.655701 464.663300,505.689728 
	C452.025970,503.987854 440.332397,498.009521 430.181000,489.736481 
	C424.041412,484.732941 418.230499,479.454376 413.432709,473.086029 
	C412.244965,471.509430 412.061157,470.907013 413.232147,469.044556 
	C417.118011,462.863861 423.378845,459.246704 428.416443,454.358337 
	C438.581177,444.494781 449.404419,435.309906 460.910645,424.988831 
	C453.487976,425.858643 447.437317,426.412415 441.437286,427.306030 
	C431.673981,428.760162 421.963196,430.574066 412.190460,431.954529 
	C408.018646,432.543793 404.023438,433.851929 399.805817,434.402374 
	C395.914490,434.910217 393.063782,434.045532 389.870422,432.499451 
	C383.125122,429.233765 376.364136,425.969940 369.433685,423.135437 
	C367.304443,422.264618 365.688171,420.704559 363.509308,419.973114 
	C358.158600,418.176971 358.023407,418.179840 358.021606,423.681671 
	C358.015289,443.011108 358.024689,462.340546 358.015381,481.669983 
	C358.012848,486.913391 355.868591,488.832397 351.404144,486.708496 
	C342.188568,482.324097 333.222809,477.414520 324.009369,472.388184 
	C324.046448,471.475555 324.373657,470.994995 325.250488,470.438721 
	C328.897797,469.736298 331.379761,471.671875 334.035583,472.942749 
	C338.833984,475.238922 343.534149,477.739471 348.329132,480.043304 
	C352.758667,482.171509 353.504913,481.750214 353.524445,476.818817 
	C353.597595,458.364441 353.540558,439.909698 353.564850,421.455109 
	C353.568115,418.971436 353.323273,416.460175 354.272583,413.649231 
	C356.829407,411.253876 358.864532,413.041992 360.856079,413.963440 
	C370.801544,418.564911 380.693604,423.281799 390.618591,427.927246 
	C394.463684,429.726959 398.133942,429.952820 402.199280,429.293701 
	C423.177338,425.892639 444.089233,422.072052 465.160065,419.252625 
	C466.313782,419.098236 467.457458,418.880676 468.997375,419.209473 
	C471.362762,421.414246 469.405304,422.685486 468.202911,423.740906 
	C453.214325,436.897125 438.910339,450.815765 423.729065,463.752594 
	C415.873444,470.446808 415.829224,470.465942 422.978058,477.735962 
	C434.307343,489.257202 447.322021,498.126495 463.423340,500.953278 
	C480.686951,503.984131 497.154999,501.155060 512.264099,491.713531 
	C518.331787,487.921936 523.969971,483.508392 530.432739,479.691162 
	C533.481323,479.577972 534.841980,481.686981 536.449524,483.287598 
	C550.730591,497.506866 565.053345,511.686310 579.174805,526.063049 
	C584.552795,531.538330 590.668335,536.188049 595.951843,541.743774 
	C597.444763,543.313660 598.957947,544.854553 600.196167,546.647156 
	C603.631653,551.620544 603.986328,555.876343 601.234192,559.549011 
	C598.220398,563.570862 591.624695,565.840698 586.899902,564.355896 
	C581.975464,562.808350 578.263611,559.418945 574.714172,555.887085 
	C561.845337,543.082031 549.034546,530.218689 536.186951,517.392212 
	C531.785400,512.997986 531.769226,513.019897 526.799988,516.909363 
	C522.321533,520.414734 518.720398,524.839355 514.518921,528.625549 
	C511.664337,531.198059 512.277710,533.088928 514.727966,535.621643 
	C526.194153,547.473511 538.901123,558.037292 550.236511,570.019165 
	C552.982727,572.922058 555.873413,575.687317 558.689453,578.523987 
	C560.944275,580.795288 560.995972,583.050537 559.221191,585.664490 
	C553.317261,594.360229 542.227417,595.834045 534.544739,588.632385 
	C527.984802,582.483032 521.745911,575.994568 515.423706,569.598328 
	C509.702026,563.809509 503.187347,558.870422 498.032623,552.441772 
	C494.641296,548.212280 493.697174,548.533569 489.725128,552.478455 
	C485.825378,556.351440 482.081421,560.393677 478.019501,564.087036 
	C474.994873,566.837341 474.898895,568.903809 477.919250,571.824097 
	C486.658813,580.274109 495.181183,588.949585 503.754852,597.570312 
	C509.058685,602.903320 508.783447,605.023987 501.863617,607.790100 
	C492.322693,611.603943 483.588867,609.325562 475.562134,603.412903 
	C474.216309,602.421509 473.039307,601.240051 471.865356,600.058472 
	C445.694702,573.717224 418.494751,548.418335 392.598145,521.799438 
	C391.320129,520.485779 390.003174,519.212341 388.256409,517.897034 
	C387.010681,516.740601 386.121368,515.705200 384.639740,514.830566 
	C383.154755,513.875061 381.877380,513.268860 380.221283,512.574097 
	C342.773407,494.235474 306.210785,474.980560 269.204346,456.605530 
	C268.159668,456.086823 267.129822,455.536530 266.069611,455.051086 
	C261.774384,453.084412 261.374359,453.305359 261.367249,458.191010 
	C261.339691,477.186279 260.757660,496.205322 261.519440,515.170532 
	C262.342346,535.657654 265.322662,555.942322 271.671204,575.974121 
	C279.805206,604.876221 292.887390,630.967957 309.951538,655.102478 
	C319.381256,668.439270 329.716827,681.021301 341.035522,692.851868 
	C363.940552,716.792664 389.214722,737.866516 416.727234,756.241150 
	C446.013641,775.800659 476.900360,792.513062 508.937653,807.122375 
	C511.748810,808.404297 514.220520,808.399902 517.035095,807.116821 
	C562.835205,786.237854 606.411560,761.582275 645.485352,729.662415 
	C678.432495,702.747681 707.500488,672.200562 729.112854,635.164429 
	C746.973755,604.557129 758.101746,571.685425 762.788208,536.533081 
	C765.731506,514.455444 764.360779,492.313263 764.717896,470.194641 
	C764.805969,464.735809 764.851013,459.267212 764.621521,453.255951 
	C759.096680,455.850098 753.824890,457.791473 748.917542,460.512970 
	C736.383911,467.463745 723.425110,473.575073 710.641479,480.031433 
	C708.607178,481.058868 706.573181,482.508179 703.798828,481.059570 
	C703.197632,480.002411 703.198059,479.231049 703.783813,478.156342 
z"/>
<path fill="#FAF6E9" opacity="1.000000" stroke="none" 
	d="
M704.035400,477.396454 
	C704.068665,478.789764 704.084106,479.723907 704.157715,481.121857 
	C703.875305,482.102570 703.395874,482.362579 702.378174,482.200867 
	C700.121399,479.922974 700.605957,477.320435 700.599915,474.875427 
	C700.553406,456.219452 700.584656,437.563263 700.569397,418.907166 
	C700.564880,413.359924 700.484253,413.270660 695.451782,415.883820 
	C690.270447,418.574219 684.935974,420.948090 679.568604,423.187164 
	C674.233032,425.412933 672.187134,428.751801 672.296387,434.663971 
	C672.644165,453.480225 672.234375,472.310059 672.536804,491.127838 
	C672.632812,497.103790 670.595642,500.504639 665.170349,503.141205 
	C650.649780,510.197906 636.235352,517.492004 621.646362,525.298584 
	C618.048218,526.100159 616.457336,523.631042 614.633850,521.817078 
	C600.132019,507.391022 585.579346,493.013489 571.263611,478.404083 
	C563.459900,470.440216 555.090210,463.096161 547.056030,455.388214 
	C540.122437,448.736145 527.415710,448.278900 518.208984,454.033325 
	C515.527405,455.709412 513.069031,457.704956 510.316589,459.938721 
	C500.852173,467.309082 491.241394,473.484070 479.262054,474.644653 
	C474.025177,475.152039 468.942841,474.446564 464.087433,472.518829 
	C460.248627,470.994659 459.880859,469.329712 462.559814,466.168304 
	C467.211365,460.679077 472.955475,456.325958 478.289093,451.568726 
	C486.981628,443.815552 495.210083,435.548157 504.268524,428.200592 
	C516.078125,418.621552 529.122131,414.116882 544.607727,416.415710 
	C570.804199,420.304504 596.888062,424.847412 623.006409,429.188202 
	C627.814697,429.987305 632.148743,429.726685 636.550232,427.569885 
	C648.361450,421.782135 660.421143,416.512451 672.280334,410.828918 
	C701.410034,396.868408 730.573486,382.980621 759.898193,369.435638 
	C763.216309,367.903015 764.700378,365.838684 764.687866,362.170380 
	C764.612000,339.852509 764.602783,317.533966 764.695496,295.216217 
	C764.711365,291.388184 763.145142,289.542358 759.533386,288.505280 
	C723.363831,278.119385 687.210388,267.675903 651.086792,257.131561 
	C607.448486,244.393738 563.661438,232.172440 520.075134,219.256409 
	C518.197449,218.699982 516.105652,218.477478 514.684692,216.324493 
	C514.751648,214.887604 515.437012,214.555908 516.760254,214.751312 
	C524.267578,214.849854 530.442322,218.543793 537.106384,220.262131 
	C545.418640,222.405472 553.643433,225.088379 561.932312,227.465286 
	C574.479370,231.063263 586.889221,235.141403 599.444519,238.708740 
	C615.711121,243.330536 632.224670,247.144760 648.323608,252.274124 
	C659.550720,255.851288 670.869324,259.185181 682.186584,262.328644 
	C693.694092,265.524963 704.956665,269.545044 716.652832,272.224304 
	C726.062500,274.379700 735.338989,277.425354 744.639893,280.166565 
	C751.490051,282.185486 758.368164,284.099091 765.242920,286.030823 
	C767.684265,286.716797 768.085938,288.451691 768.073059,290.881866 
	C767.959534,312.375458 768.085815,333.870422 767.937134,355.363556 
	C767.909607,359.342926 769.944885,363.056519 768.289856,367.394043 
	C767.407104,369.707825 766.377441,371.003113 764.527161,371.861328 
	C756.135132,375.753784 747.617065,379.378998 739.273865,383.371033 
	C729.348999,388.119873 719.591370,393.217163 709.697632,398.032654 
	C697.312378,404.060852 684.924561,410.090759 672.420593,415.866119 
	C662.305298,420.538239 652.054321,424.908264 642.121826,429.982208 
	C634.392700,433.930603 626.520874,435.593170 617.799927,432.561432 
	C612.974854,430.884033 607.547302,431.024536 602.466675,429.979553 
	C591.552124,427.734589 580.356079,427.312317 569.521118,424.388031 
	C563.915466,422.875153 557.943726,422.335785 552.113647,422.164337 
	C547.778564,422.036835 543.832092,420.342224 539.655518,420.082764 
	C528.748047,419.405121 518.679993,422.456757 510.344269,429.373230 
	C499.942810,438.003845 490.152710,447.371674 480.107483,456.430969 
	C476.318390,459.848145 472.846893,463.717957 468.682709,466.585846 
	C465.521881,468.762756 467.418732,469.302094 469.138641,469.914246 
	C475.081848,472.029694 480.800995,470.533264 486.642365,468.900269 
	C499.161224,465.400574 507.647064,455.393036 518.710693,449.522980 
	C527.637329,444.786774 543.727417,446.230347 551.001831,453.466095 
	C560.215637,462.630890 569.325806,471.900696 578.595337,481.008484 
	C587.767700,490.020782 597.346436,498.636169 606.217957,507.930511 
	C610.317749,512.225708 614.937622,515.941711 618.882202,520.358398 
	C619.811218,521.398560 620.282166,521.631714 621.903564,520.763428 
	C635.704712,513.373047 649.586426,506.121368 663.623657,499.192017 
	C666.954956,497.547516 668.028320,495.555725 668.014893,492.130859 
	C667.938171,472.636444 668.446289,453.124634 667.742676,433.655334 
	C667.468872,426.076691 670.119141,422.287476 676.656677,419.658905 
	C684.216797,416.619202 691.587891,413.113068 698.696289,409.063843 
	C702.209045,407.062866 704.003357,408.315918 704.008301,412.455231 
	C704.033875,433.949219 704.018555,455.443268 704.035400,477.396454 
z"/>
<path fill="#EEEEEF" opacity="1.000000" stroke="none" 
	d="
M516.935669,214.563721 
	C516.543152,215.133820 515.946289,215.328552 515.172791,215.790253 
	C514.623901,216.476151 514.186096,216.808746 513.294739,217.195709 
	C486.583649,225.169052 460.134857,232.567596 433.759979,240.221756 
	C381.486115,255.391937 329.151123,270.350677 276.902283,285.607300 
	C273.227142,286.680420 269.481079,287.483185 265.829468,288.655029 
	C262.956390,289.576996 261.364899,291.200378 261.367004,294.404968 
	C261.381866,317.212006 261.374908,340.019043 261.371460,362.826111 
	C261.370972,366.121002 262.925812,367.980957 265.843781,369.267456 
	C283.509460,377.056396 300.728149,385.807770 318.328033,393.742737 
	C320.701172,394.812714 323.412598,395.606934 324.448853,398.891907 
	C324.199951,400.185272 323.581757,400.701813 322.352600,401.080963 
	C315.172913,396.491730 307.472565,393.673706 300.163361,390.108826 
	C287.257263,383.814209 274.277802,377.655518 261.161377,371.816620 
	C257.634766,370.246735 256.940948,366.978882 257.276489,364.799805 
	C258.880768,354.381256 257.682129,343.974701 257.894409,333.581146 
	C258.186859,319.263916 258.009430,304.935974 257.923370,290.613281 
	C257.910217,288.432983 258.192139,286.743530 260.536316,286.111633 
	C269.454437,283.707458 278.404785,281.417725 287.290161,278.898560 
	C298.179230,275.811249 309.028381,272.606018 319.968018,269.678864 
	C329.330780,267.173615 338.584106,264.200806 347.995819,261.710999 
	C357.045197,259.317047 365.999237,256.381805 374.985107,253.680923 
	C388.429626,249.639908 401.930023,245.813782 415.408722,241.895111 
	C424.889648,239.138687 434.416260,236.516739 443.860596,233.706757 
	C453.017151,230.982422 462.381592,228.880798 471.368286,225.776184 
	C482.991821,221.760635 495.088440,219.441849 506.593933,215.120941 
	C509.847656,213.899017 513.262085,213.518845 516.935669,214.563721 
z"/>
<path fill="#FFF9E5" opacity="1.000000" stroke="none" 
	d="
M321.961792,401.595642 
	C322.512726,400.715820 323.087128,400.295593 324.016052,399.772644 
	C324.546082,399.938782 324.721619,400.207581 325.055420,400.931091 
	C325.981537,414.500641 325.440704,427.627136 325.528137,440.747711 
	C325.592346,450.381439 325.715637,460.018036 325.305511,470.101990 
	C324.912659,470.933777 324.677795,471.315735 324.153717,471.876526 
	C320.651672,471.004425 320.852448,467.419342 321.295868,465.890411 
	C322.350769,462.252899 321.915344,458.730164 321.937744,455.193695 
	C322.049866,437.481506 321.986786,419.768158 321.961792,401.595642 
z"/>
<path fill="#BF9F5D" opacity="1.000000" stroke="none" 
	d="
M512.747070,216.512238 
	C513.483032,216.125351 513.914368,216.101791 514.670898,216.067734 
	C534.128906,221.657837 553.251160,227.294205 572.396240,232.852036 
	C621.110046,246.993652 669.832703,261.104553 718.554688,275.217896 
	C732.927368,279.381256 747.276978,283.631622 761.710632,287.572754 
	C765.305115,288.554260 766.309082,290.235199 766.286560,293.830414 
	C766.141846,316.980743 766.178345,340.132751 766.294556,363.283508 
	C766.310425,366.445221 765.636108,368.398254 762.478027,369.873779 
	C719.824097,389.802582 677.205872,409.809082 634.685974,430.021729 
	C630.615479,431.956696 626.966797,431.214874 623.116455,430.597076 
	C597.514893,426.489166 571.894775,422.483795 546.343445,418.080902 
	C529.230164,415.131989 514.882690,420.202698 502.327759,431.646820 
	C489.782227,443.082520 477.151520,454.424896 464.624054,465.880249 
	C460.401306,469.741608 460.536469,470.156036 466.081421,471.855499 
	C478.170593,475.560730 489.061066,472.147522 499.370850,465.934418 
	C502.781067,463.879272 505.930298,461.390991 509.529572,459.027161 
	C511.166779,458.347015 512.128174,459.103760 512.946533,459.893372 
	C518.887329,465.625732 524.771057,471.416779 530.435181,477.425354 
	C531.008972,478.033997 531.356506,478.788452 531.273804,479.972168 
	C519.194763,489.126038 507.257080,497.966248 492.477478,501.525940 
	C474.711975,505.804779 457.760834,503.481537 441.904388,494.391937 
	C432.598907,489.057617 424.566193,482.094788 417.414459,474.068756 
	C415.179749,471.560883 415.013336,470.060242 417.681274,467.668274 
	C433.787079,453.228821 449.733490,438.611542 465.731293,424.051666 
	C466.960907,422.932587 468.175873,421.797333 469.595459,420.427307 
	C473.683960,413.623901 480.313629,409.872711 485.669830,404.824066 
	C490.726532,400.057800 496.946075,396.811829 502.896545,392.584686 
	C503.902802,392.013885 504.645630,391.807373 505.804688,391.613678 
	C514.246033,388.837280 522.448730,386.868103 530.912537,385.893402 
	C536.961609,385.196808 542.898254,386.347565 548.767029,387.040619 
	C572.683167,389.864899 596.384949,394.170441 620.087646,398.415375 
	C623.704224,399.063080 627.108154,399.035034 630.709412,397.366913 
	C642.484070,391.912842 653.933899,385.781250 665.834595,380.605133 
	C668.682983,379.366211 669.712463,377.469147 669.654541,374.407898 
	C669.352722,358.460632 671.698425,361.667816 657.691162,357.505432 
	C620.536682,346.464569 583.239197,335.915070 546.011169,325.126862 
	C536.429077,322.350128 526.858948,319.523804 517.313232,316.619904 
	C515.560120,316.086578 513.801086,315.534241 512.335938,313.666199 
	C510.941742,303.647552 511.255035,294.005676 512.106140,283.930298 
	C512.765747,282.608154 513.593750,282.282928 514.960205,282.114807 
	C544.384949,290.282959 573.271118,298.833405 602.226196,307.144257 
	C628.141296,314.582489 653.984924,322.267303 679.929504,329.603607 
	C685.696777,331.234375 691.396851,333.108643 697.157410,334.756134 
	C701.773560,336.076416 703.588257,338.860474 703.382202,343.570587 
	C703.164001,348.559570 703.366333,353.567749 703.329041,358.566559 
	C703.308228,361.361755 704.363953,362.179047 706.985840,361.110016 
	C715.796143,357.517670 724.038574,352.756775 732.633606,348.724396 
	C734.311340,347.937317 734.514160,346.551697 734.544556,345.007690 
	C734.731384,335.509766 734.559021,326.010651 734.636963,316.513000 
	C734.665344,313.052612 732.467834,311.990234 729.749146,311.194092 
	C713.922241,306.559265 698.045471,302.096161 682.223328,297.446533 
	C630.126770,282.136841 577.861816,267.410553 525.736450,252.201126 
	C521.740112,251.035065 517.647034,250.223801 513.333923,248.632187 
	C512.765686,248.177841 512.570374,247.951859 512.179321,247.313721 
	C511.384705,236.881424 510.583435,226.858185 512.747070,216.512238 
z"/>
<path fill="#474748" opacity="1.000000" stroke="none" 
	d="
M702.585571,482.420624 
	C703.313599,482.147095 703.603333,482.037689 704.051819,481.750031 
	C724.683899,471.339600 745.151978,461.093567 766.368896,450.472656 
	C766.368896,453.957916 766.400391,456.570526 766.364014,459.182220 
	C766.053162,481.492401 767.211792,503.810760 765.280762,526.113647 
	C760.803223,577.826416 742.049133,623.899231 710.743896,665.001953 
	C678.939392,706.760315 639.180664,739.573303 594.907288,767.256165 
	C570.035339,782.807800 543.997375,796.138611 517.434692,808.511475 
	C514.267395,809.986694 511.716797,809.845886 508.568176,808.402100 
	C456.113831,784.349609 406.715424,755.483215 363.548828,716.753479 
	C328.449554,685.261963 299.313232,649.303589 280.580688,605.592529 
	C276.711273,596.563538 273.425964,587.321411 270.613586,577.505798 
	C274.464722,576.487732 277.441620,574.970947 277.686768,570.284546 
	C277.761536,568.854858 279.072754,567.639832 280.300476,566.769897 
	C283.211060,564.707336 284.551544,562.005798 284.855072,558.400940 
	C285.222229,554.039734 286.821594,553.289978 289.981232,556.069702 
	C293.145905,558.853882 293.064667,554.013306 295.375488,554.343384 
	C298.100677,554.824463 298.046295,556.890442 298.473358,558.610657 
	C307.553650,595.187073 325.125763,627.391113 348.902802,656.375549 
	C370.612091,682.839417 396.259003,704.995056 424.184601,724.592651 
	C450.701141,743.201355 478.769928,759.151917 507.961823,773.176392 
	C511.408447,774.832275 514.274658,775.136658 517.776184,773.432068 
	C538.303772,763.439331 558.446533,752.766968 577.811462,740.644226 
	C598.886169,727.451233 619.007996,712.983398 637.750732,696.616760 
	C677.639648,661.784668 709.044678,621.118408 724.554138,569.673950 
	C729.706909,552.582214 733.085449,535.088379 733.773071,517.169128 
	C733.919922,513.342896 734.909607,509.611328 734.805969,505.738007 
	C734.718506,502.467896 733.593933,502.024170 730.855469,503.427826 
	C723.145630,507.379700 715.391479,511.247375 707.595764,515.026184 
	C705.657715,515.965637 703.562744,517.883545 701.131226,515.063477 
	C699.936096,505.337433 700.575928,495.971466 700.592346,486.615051 
	C700.594971,485.130646 700.931091,483.664032 702.585571,482.420624 
z"/>
<path fill="#464647" opacity="1.000000" stroke="none" 
	d="
M502.868469,392.787964 
	C502.829254,393.737061 502.757080,394.660187 502.332703,394.869659 
	C489.961670,400.974548 480.667450,411.014923 470.080139,419.974487 
	C454.073853,422.599548 438.353668,425.009125 422.635590,427.432312 
	C419.187134,427.963928 415.598206,428.097748 412.328217,429.181763 
	C400.416351,433.130524 389.785736,430.592529 379.227966,424.392212 
	C371.816254,420.039490 363.666382,416.943634 355.509766,413.206909 
	C354.000275,413.707306 352.900116,413.294250 351.860626,412.793243 
	C342.826965,408.439026 333.648651,404.394012 324.898438,399.777130 
	C325.179443,399.519135 324.745697,399.442596 324.558105,399.556274 
	C324.133911,397.237549 321.858368,397.226624 320.355743,396.515747 
	C302.024139,387.843719 283.704346,379.141785 265.240173,370.758789 
	C261.010071,368.838226 259.553833,366.489594 259.611206,361.800964 
	C259.884186,339.488770 259.891205,317.169250 259.597168,294.857544 
	C259.535187,290.154602 260.921234,288.295746 265.409332,287.018585 
	C317.701385,272.138184 369.932617,257.044006 422.178497,242.001373 
	C452.211700,233.354248 482.242249,224.697906 512.662842,216.097305 
	C513.043701,226.288681 513.035767,236.428452 513.020752,247.001343 
	C512.580688,249.638458 510.547913,249.424164 509.096863,249.839600 
	C450.361053,266.656128 391.708771,283.762512 332.973816,300.581573 
	C321.290863,303.927002 309.672180,307.492401 297.948822,310.700378 
	C291.732880,312.401276 291.396423,312.939453 291.373932,319.332031 
	C291.347015,326.991943 291.481842,334.654541 291.319733,342.310913 
	C291.239532,346.098663 292.524200,348.499603 296.088287,350.124878 
	C303.506042,353.507507 311.013367,356.719788 318.194977,360.602722 
	C321.212463,362.234253 322.799530,361.874207 322.693481,357.975769 
	C322.562225,353.150879 322.837616,348.310211 322.619080,343.491821 
	C322.404419,338.760040 324.322479,336.108154 328.903015,334.742035 
	C340.856995,331.176788 352.828369,327.666931 364.816101,324.224091 
	C396.301361,315.181671 427.760529,306.049103 459.223816,296.931580 
	C475.355774,292.256836 491.531433,287.731201 507.615601,282.890839 
	C509.183929,282.418884 510.787506,281.743866 512.772400,282.796051 
	C513.059998,293.067200 513.049072,303.061859 513.049438,313.524658 
	C512.912842,314.546509 512.630188,315.019592 511.860382,315.635803 
	C468.583466,328.660736 425.511627,340.956757 382.452301,353.296143 
	C374.928955,355.452118 367.508026,357.961395 359.941437,359.960144 
	C357.459106,360.615845 356.142487,361.810242 356.416016,364.455139 
	C356.449860,364.782532 356.434387,365.127136 356.381195,365.452484 
	C354.901855,374.500244 357.223724,380.481293 367.039215,383.850189 
	C376.558289,387.117310 385.687531,391.893311 394.563934,396.848785 
	C398.155518,398.853882 401.612915,399.041168 405.551331,398.317963 
	C426.489777,394.472870 447.518463,391.111542 468.573486,388.019470 
	C477.915741,386.647491 487.543030,387.026764 496.813904,389.802917 
	C498.872437,390.419342 501.050873,390.815613 502.868469,392.787964 
z"/>
<path fill="#484749" opacity="1.000000" stroke="none" 
	d="
M531.387939,480.444153 
	C524.734436,472.783752 517.473755,466.125275 510.186523,459.064148 
	C520.013184,448.248901 538.422546,443.414154 552.907959,458.562256 
	C574.518372,481.161346 597.245422,502.692688 619.820557,524.770142 
	C626.939026,529.004578 630.281189,535.471130 632.274902,542.854675 
	C632.921997,545.251343 633.279968,547.707581 633.913513,550.500244 
	C634.089722,551.650574 634.068359,552.422058 633.926758,553.573914 
	C633.153381,564.839844 629.224792,574.205750 621.372070,582.000305 
	C613.137146,590.174194 603.036316,593.864075 591.844482,595.086365 
	C589.055969,595.390869 587.587830,596.401306 586.236938,598.944275 
	C576.777039,616.752686 557.431274,625.988708 537.544556,622.483398 
	C535.125061,622.056946 533.027588,621.665100 530.795959,623.921692 
	C508.386719,646.581787 472.577667,643.449585 450.774017,622.006592 
	C445.785492,617.100647 440.779572,612.209167 435.911163,607.184875 
	C414.465118,585.051880 391.533783,564.427002 370.102417,542.285339 
	C367.521942,539.619385 363.676544,538.696960 361.649780,535.063538 
	C362.720886,531.074463 365.418304,529.224304 368.887482,528.914673 
	C372.815765,528.564087 373.764954,526.449280 373.683502,522.988647 
	C373.563782,517.902954 374.699371,513.440979 380.805664,511.685791 
	C382.378143,512.107300 383.605286,512.718628 385.035461,513.606873 
	C385.014343,515.992859 386.972717,515.899048 388.372375,516.732910 
	C407.616913,535.276245 426.569977,553.749817 445.478149,572.269226 
	C454.401184,581.008850 463.232208,589.842407 472.115936,598.622192 
	C478.682922,605.112366 486.292450,609.035706 495.827240,608.151733 
	C496.655579,608.074890 497.509125,608.075989 498.303833,607.864136 
	C501.393219,607.040771 505.265411,606.109131 506.341583,603.425659 
	C507.383148,600.828491 503.557495,599.054199 501.683899,597.148010 
	C492.928223,588.240234 484.106659,579.393738 475.138153,570.701172 
	C472.919159,568.550415 472.879456,567.372009 475.167297,565.250000 
	C480.658386,560.156799 486.033752,554.912231 491.109344,549.409180 
	C493.542816,546.770813 494.819611,547.523865 496.914124,549.633728 
	C509.351013,562.162231 521.796448,574.686340 534.464783,586.979370 
	C541.985413,594.277161 551.431946,593.586853 557.537231,585.940979 
	C559.657837,583.285339 559.812500,581.524658 557.105957,578.895447 
	C542.174866,564.390747 527.525330,549.596436 512.639343,535.044617 
	C510.271301,532.729797 509.651520,531.490295 512.502014,528.972412 
	C517.986145,524.128052 523.205017,518.949829 528.197754,513.596619 
	C530.707336,510.905792 532.081421,511.395203 534.429688,513.745972 
	C549.023499,528.355530 563.774048,542.808472 578.467896,557.318115 
	C581.207886,560.023743 583.966064,562.620483 588.026001,563.278320 
	C593.231262,564.121704 599.219177,561.582031 601.276245,557.338440 
	C603.622681,552.497864 600.949158,549.051697 597.763245,545.899475 
	C575.744568,524.113342 553.699097,502.354309 531.387939,480.444153 
z"/>
<path fill="#464548" opacity="1.000000" stroke="none" 
	d="
M380.898773,511.278503 
	C381.080872,511.821289 381.103577,512.365295 380.927185,512.440125 
	C374.422638,515.200684 374.749725,520.827026 374.974640,526.441589 
	C375.076233,528.977478 373.670990,530.179565 371.246521,529.965271 
	C367.064423,529.595581 364.305847,531.672302 361.801514,535.100098 
	C361.074280,535.533081 360.642639,535.669739 359.834229,535.689331 
	C358.801605,535.518738 358.154297,535.257385 357.179810,534.861145 
	C346.251343,529.749023 336.100189,523.854553 324.973694,519.108521 
	C323.940216,518.668396 323.298462,518.280090 322.352112,517.661499 
	C313.387939,512.121399 303.997589,508.227448 295.040680,503.495331 
	C291.226013,501.480011 291.162018,504.065918 291.355255,506.582214 
	C292.180908,517.334412 292.822418,528.109070 294.575745,538.766663 
	C294.875732,540.590088 295.284821,542.357971 294.328339,544.445740 
	C292.424225,546.574829 294.277954,547.060974 295.539185,548.128174 
	C296.705872,550.274048 297.368256,552.185547 296.453369,554.623596 
	C295.401337,555.064209 294.531921,555.169739 294.199707,556.084229 
	C292.733887,560.119263 291.150635,562.260620 288.958496,556.479797 
	C288.636902,555.631714 288.134888,555.028625 287.141602,555.304382 
	C286.161682,555.576355 285.949707,556.460876 286.049866,557.272461 
	C286.668518,562.285645 284.658691,565.803467 280.325684,568.321228 
	C278.919739,569.138123 278.034271,570.948303 278.125275,572.581848 
	C278.433350,578.112732 275.697205,578.720276 270.937561,577.124146 
	C263.147522,554.059265 260.121246,530.306458 259.776550,506.190521 
	C259.529083,488.877350 259.711456,471.557983 259.717285,454.241364 
	C259.717621,453.274963 259.856720,452.308624 259.998260,450.472687 
	C300.513275,470.818909 340.579926,490.939941 380.898773,511.278503 
z"/>
<path fill="#BD9F5E" opacity="1.000000" stroke="none" 
	d="
M324.808014,399.917297 
	C335.416840,402.932831 344.803375,408.239410 354.865967,412.926514 
	C355.105133,434.873596 355.034882,456.619904 354.969879,478.366180 
	C354.949524,485.176056 354.962311,485.163239 349.048859,482.228607 
	C341.325745,478.395874 333.591248,474.586060 325.504578,470.659119 
	C324.102966,469.534821 324.012299,468.246796 324.015625,466.885315 
	C324.068909,445.181030 324.101807,423.476685 324.154846,401.772400 
	C324.156036,401.286530 324.338593,400.801086 324.808014,399.917297 
z"/>
<path fill="#464548" opacity="1.000000" stroke="none" 
	d="
M388.524597,516.491455 
	C386.926514,516.624817 384.200317,518.036560 384.947601,514.090332 
	C386.281311,514.655579 387.324127,515.427307 388.524597,516.491455 
z"/>
<path fill="#BF9F5E" opacity="1.000000" stroke="none" 
	d="
M633.470215,551.354248 
	C631.517944,548.208984 631.559631,544.804993 630.661621,541.642151 
	C628.831360,535.196045 624.831848,530.204712 620.234497,525.184937 
	C631.513062,517.594849 643.997986,512.445190 655.834839,506.064880 
	C660.789978,503.393951 667.458252,502.229218 670.312012,497.811096 
	C673.066895,493.546112 671.053345,487.131226 671.084595,481.665710 
	C671.182678,464.529510 671.219604,447.391602 671.059143,430.256439 
	C671.028259,426.958435 671.975281,425.190857 675.052368,423.814911 
	C683.828796,419.890442 692.444336,415.606049 701.757507,411.160431 
	C701.866699,413.506927 702.028809,415.395111 702.030884,417.283478 
	C702.052246,436.915833 702.038696,456.548218 702.065979,476.180542 
	C702.068481,477.995789 702.284912,479.810669 702.710327,481.934204 
	C701.371643,484.647614 702.111938,487.374115 702.082764,489.957245 
	C701.987915,498.383209 702.041809,506.810852 702.044067,515.718994 
	C702.109131,516.444580 702.168579,516.689087 702.029663,517.254395 
	C701.593384,517.808899 701.361206,518.065247 701.068420,518.210815 
	C679.654785,528.860413 658.606995,540.228210 637.141174,550.774841 
	C636.095581,551.288574 635.013672,551.732849 633.470215,551.354248 
z"/>
<path fill="#F4F4F5" opacity="1.000000" stroke="none" 
	d="
M513.431641,283.027222 
	C503.239868,284.863098 493.832184,288.214325 484.269440,290.974396 
	C432.490326,305.919464 380.754883,321.016144 328.953522,335.883392 
	C324.985992,337.022064 323.752991,338.723724 323.957458,342.744598 
	C324.311768,349.712036 324.055847,356.710449 324.055847,364.508331 
	C313.017914,359.311432 302.547638,354.360260 292.051666,349.464142 
	C290.547852,348.762665 290.388672,347.611389 290.388458,346.204651 
	C290.386841,335.705261 290.517273,325.201630 290.245758,314.708679 
	C290.146362,310.867249 292.879486,310.942322 295.067078,310.307495 
	C318.066833,303.632782 341.094849,297.055481 364.106781,290.422577 
	C413.482208,276.190765 462.852783,261.941986 512.619507,247.567291 
	C513.013733,247.434464 512.940674,247.741196 512.975281,247.894989 
	C513.893372,249.213654 516.231323,248.858963 515.847412,251.316315 
	C494.683472,256.575897 474.260925,263.191010 453.696198,269.230713 
	C423.519836,278.093292 393.237518,286.592102 363.031586,295.344208 
	C342.582703,301.269226 322.254120,307.642639 301.650848,313.040436 
	C296.169342,314.476532 295.419891,315.337067 295.383240,320.911804 
	C295.336121,328.072479 295.406464,335.234161 295.358429,342.394562 
	C295.336761,345.627655 296.590698,347.782166 299.685272,348.899231 
	C305.023285,350.826172 309.965637,353.624664 315.085083,356.032837 
	C320.121948,358.402161 320.566895,358.137268 320.626648,352.379761 
	C320.668152,348.383301 320.671021,344.385651 320.644531,340.389648 
	C320.617493,336.307404 322.523926,334.007477 326.421814,332.770966 
	C338.797089,328.845001 351.361115,325.582397 363.817139,321.943237 
	C385.535858,315.597870 407.321075,309.486389 429.011047,303.033234 
	C444.313293,298.480499 459.720490,294.253448 475.052795,289.787933 
	C486.384674,286.487549 497.779144,283.387665 508.998535,279.706482 
	C511.752136,278.802979 514.467346,277.966827 517.057739,280.838745 
	C517.330994,281.801392 517.160217,282.300049 516.352539,282.895996 
	C515.249451,283.049011 514.520874,283.015472 513.431641,283.027222 
z"/>
<path fill="#FBF7E8" opacity="1.000000" stroke="none" 
	d="
M516.252869,283.315857 
	C516.195068,282.785614 516.412170,282.488678 516.880493,282.068542 
	C519.243042,280.075867 521.591553,280.959656 523.766479,281.584106 
	C534.802490,284.752777 545.790771,288.086304 556.811646,291.308868 
	C567.667603,294.483124 578.478882,297.835968 589.364502,300.899780 
	C606.505249,305.724152 623.520142,310.974152 640.662048,315.787781 
	C657.804932,320.601654 674.990723,325.269806 692.048462,330.376160 
	C706.758789,334.779846 705.301086,333.887512 705.348083,347.995941 
	C705.383423,358.597198 705.332520,358.546783 715.029358,354.185272 
	C718.975037,352.410553 722.635803,350.052185 726.781921,348.682281 
	C729.850647,347.668335 731.217468,345.441162 730.961243,342.135620 
	C730.406433,334.979095 730.404663,327.820221 731.362183,320.690643 
	C731.905273,316.647339 730.064697,314.399567 726.247742,313.428192 
	C705.593384,308.171783 685.295227,301.662262 664.833984,295.736633 
	C639.107422,288.286194 613.328125,281.009369 587.664429,273.331268 
	C572.850952,268.899353 558.005249,264.523651 543.031860,260.617493 
	C536.434021,258.896301 530.006470,256.572266 523.328186,255.081741 
	C520.801514,254.517807 518.165527,253.674423 516.126099,251.236511 
	C515.336975,249.718887 513.392822,250.301178 513.049194,248.366302 
	C522.337219,249.066971 531.027222,252.564484 539.943359,255.122635 
	C603.713989,273.419342 667.434753,291.889954 731.208008,310.177582 
	C734.877869,311.229919 736.161377,312.746582 736.016174,316.649475 
	C735.663513,326.130524 735.817078,335.632355 735.870117,345.125214 
	C735.883179,347.468811 735.530273,349.071808 733.013367,350.207611 
	C724.065735,354.245453 715.186340,358.450867 706.424988,362.877655 
	C702.588623,364.816071 701.888611,363.546234 701.986450,359.900940 
	C702.142700,354.075928 701.833923,348.235138 702.092529,342.417480 
	C702.250610,338.862305 701.161011,337.128998 697.567139,336.098206 
	C667.684143,327.527130 637.865479,318.732239 608.013245,310.053436 
	C577.526367,301.190094 547.023621,292.381653 516.252869,283.315857 
z"/>
<path fill="#FCF8E8" opacity="1.000000" stroke="none" 
	d="
M511.858551,315.280029 
	C512.175598,314.690033 512.381470,314.433075 512.824097,314.084473 
	C551.027771,325.038818 588.996643,336.078583 626.960815,347.134216 
	C640.523315,351.083801 654.055420,355.139862 667.648132,358.981720 
	C670.180176,359.697357 671.427246,360.811554 671.107910,363.448608 
	C671.088135,363.612579 671.103394,363.781281 671.107910,363.947632 
	C671.534363,379.703217 671.490479,379.605377 656.790894,386.210236 
	C648.298950,390.025879 639.855530,393.989899 631.630310,398.340942 
	C627.773071,400.381409 624.121826,400.352905 620.142639,399.647614 
	C596.435608,395.445740 572.711914,391.335052 548.843872,388.138367 
	C534.431091,386.208008 520.310791,387.193085 506.380432,392.983704 
	C505.627533,392.564728 505.452209,392.050262 505.605042,391.070251 
	C507.625305,388.341919 510.309875,387.288483 513.053345,386.666748 
	C522.488586,384.528381 531.928711,383.627625 541.739624,384.169159 
	C557.617676,385.045502 573.143372,388.005463 588.702576,390.679321 
	C599.353149,392.509644 610.167603,393.448273 620.670898,396.145905 
	C623.161987,396.785767 625.605835,396.586823 628.005249,395.561432 
	C639.656555,390.582306 650.753174,384.453461 662.218872,379.101746 
	C667.811646,376.491302 666.498047,371.885223 666.558838,367.545654 
	C666.617493,363.356079 663.330200,362.482117 660.280334,361.589661 
	C635.355652,354.296448 610.429077,347.006805 585.509888,339.697540 
	C564.438354,333.516846 543.149231,328.040466 522.032776,320.681580 
	C520.622253,319.954041 519.594055,319.304871 518.030518,319.025574 
	C517.460876,318.885071 517.234741,318.822571 516.674927,318.649963 
	C514.675720,317.775085 512.657776,317.563385 511.858551,315.280029 
z"/>
<path fill="#F5F5F6" opacity="1.000000" stroke="none" 
	d="
M505.770630,390.808197 
	C505.998932,391.561920 505.997925,391.976013 505.999695,392.700806 
	C505.270233,393.057434 504.537964,393.103455 503.435669,393.148010 
	C486.886536,386.512482 470.465668,388.381989 453.894073,391.403351 
	C436.868256,394.507568 419.747253,397.087921 402.678314,399.959534 
	C400.622345,400.305389 398.852142,400.109314 396.929474,399.181702 
	C384.192841,393.036499 371.430328,386.941772 358.592804,381.011230 
	C355.784058,379.713623 354.602783,378.130066 354.835541,374.969910 
	C355.189423,370.165192 353.474670,364.362152 355.624664,360.770905 
	C357.824402,357.096588 364.248199,357.458649 368.822693,356.120880 
	C415.596405,342.442657 462.409363,328.898590 509.214325,315.327454 
	C509.847656,315.143829 510.520111,315.095001 511.571991,314.965149 
	C513.046570,316.623169 515.066772,316.619232 516.739990,317.818909 
	C511.676392,320.317444 505.954498,320.474792 500.551605,322.151550 
	C483.550232,327.427765 466.412445,332.262268 449.296265,337.164520 
	C433.789612,341.605774 418.326996,346.222382 402.828156,350.695557 
	C391.959106,353.832550 381.137604,357.140564 370.222443,360.119263 
	C369.097717,360.426178 367.963196,360.697144 366.850342,361.047028 
	C359.559998,363.339111 357.398926,367.619293 359.634308,375.086182 
	C360.177307,376.900024 361.458893,377.842163 362.984650,378.536163 
	C374.956818,383.981689 386.603821,390.110992 398.620850,395.460846 
	C400.505493,396.299835 402.401093,396.414368 404.463104,396.051331 
	C419.531647,393.398254 434.653931,391.070679 449.759155,388.639160 
	C458.293915,387.265350 466.740601,385.356232 475.429443,385.198975 
	C485.803192,385.011230 496.043976,385.627899 505.770630,390.808197 
z"/>
<path fill="#F6F5F6" opacity="1.000000" stroke="none" 
	d="
M701.766296,517.322815 
	C701.979614,517.001770 702.094177,516.607727 702.071899,516.403931 
	C713.428040,511.616943 723.944397,505.225616 735.687744,499.801605 
	C735.767700,513.669373 734.540894,526.824402 732.472900,539.915039 
	C724.147583,592.616455 698.953491,636.584961 662.429199,674.592041 
	C624.950623,713.592102 580.555237,742.965393 532.569214,767.273499 
	C526.071472,770.565125 519.636230,776.350464 512.850891,776.006470 
	C506.282410,775.673462 499.928406,770.413025 493.547821,767.183228 
	C452.063568,746.184631 413.192993,721.311462 378.970337,689.592896 
	C343.074371,656.323486 315.088196,617.837585 300.707123,570.438354 
	C299.212616,565.512512 298.030853,560.491882 296.463013,555.227356 
	C295.841217,552.873413 295.460388,550.807373 294.944336,548.371704 
	C294.166382,547.141479 292.281677,546.861816 293.794678,545.336426 
	C292.891785,533.133118 290.646423,520.833130 290.607483,508.325287 
	C290.599731,505.833862 290.606354,503.342377 290.606354,500.208801 
	C301.855804,504.824371 312.002167,511.013550 322.981750,516.197266 
	C323.392487,517.179260 323.389740,517.941589 322.613037,518.887695 
	C320.509888,519.840210 319.144470,518.723145 317.684204,517.973816 
	C311.615326,514.859741 305.403809,512.033508 299.429565,508.722900 
	C295.770355,506.695099 295.224731,507.039398 295.282806,511.303619 
	C295.416718,521.128113 296.218842,530.927368 297.801208,540.610535 
	C300.711578,558.420288 305.678314,575.735901 312.892944,592.241150 
	C322.400604,613.992188 334.611389,634.186890 349.822998,652.534424 
	C364.866058,670.678589 381.420685,687.337341 399.614807,702.229004 
	C414.032196,714.029602 429.318848,724.720032 445.003571,734.877136 
	C458.871124,743.857361 473.310760,751.734741 487.766754,759.628784 
	C494.627747,763.375366 501.678467,766.775208 508.636017,770.345764 
	C511.527069,771.829468 514.211243,771.826050 517.201233,770.446533 
	C533.705078,762.832031 549.603699,754.072144 565.242371,744.862427 
	C599.254639,724.832153 630.883240,701.570740 658.404846,673.172791 
	C683.551086,647.225769 703.995422,617.949707 716.691772,583.865356 
	C723.556152,565.437256 728.376831,546.437195 729.984863,526.670959 
	C730.521851,520.069519 730.158813,513.393127 731.883911,506.432312 
	C723.609863,510.023590 716.246582,514.212463 708.591309,517.791077 
	C706.632629,518.706726 704.796082,519.932922 702.145996,519.307983 
	C701.551147,518.657288 701.463928,518.166321 701.766296,517.322815 
z"/>
<path fill="#F7F6F7" opacity="1.000000" stroke="none" 
	d="
M359.730652,535.475830 
	C360.341431,535.061279 360.664734,535.092224 361.223145,535.265259 
	C372.858093,540.839294 380.234741,551.034302 389.042694,559.492859 
	C410.406158,580.008911 431.120087,601.202454 452.531586,621.666992 
	C469.591003,637.971985 489.684998,642.890869 512.334900,634.938232 
	C519.542847,632.407410 525.444824,627.765808 530.723633,622.382751 
	C532.211121,620.865845 533.441772,620.450928 535.467651,620.976013 
	C556.848022,626.517639 580.081665,613.212158 586.227600,596.165283 
	C587.250427,593.328308 589.348206,593.792603 591.463989,593.729858 
	C610.176453,593.174683 626.601807,580.587036 631.333496,563.048645 
	C632.063232,560.343933 632.194763,557.477844 632.742126,554.320068 
	C633.305725,553.611084 633.790222,553.450745 634.704407,553.603455 
	C637.408081,557.613159 636.201843,561.578918 634.880859,565.272461 
	C628.206909,583.934204 615.012695,594.790283 595.254944,597.063049 
	C591.448425,597.500916 589.593811,598.919128 587.655029,602.126343 
	C579.092163,616.291809 566.603821,624.757263 549.777527,625.140869 
	C540.461365,625.353210 532.337646,625.791382 524.217224,632.448669 
	C504.467834,648.639709 468.905060,643.154053 451.232941,625.840393 
	C424.013947,599.173462 396.878937,572.416687 369.555450,545.854614 
	C367.406952,543.766052 365.451447,541.428955 361.831848,540.871948 
	C359.463928,539.624878 358.636993,538.045288 359.730652,535.475830 
z"/>
<path fill="#FDF9EA" opacity="1.000000" stroke="none" 
	d="
M635.508362,554.126587 
	C634.640625,554.026062 634.138000,554.005554 633.258301,553.969482 
	C632.898438,553.254272 632.915649,552.554626 633.038330,551.515259 
	C643.404968,546.112671 653.692871,541.103271 663.920410,535.973511 
	C676.393982,529.717102 688.816772,523.359558 701.620605,517.023743 
	C701.992676,517.477051 702.005676,517.952393 702.032471,518.784058 
	C701.690735,521.969604 699.235535,522.649353 697.228516,523.599670 
	C678.946289,532.256714 661.232666,542.021851 643.224182,551.211121 
	C640.859924,552.417480 638.501526,553.644775 635.508362,554.126587 
z"/>
<path fill="#BF9F5D" opacity="1.000000" stroke="none" 
	d="
M324.827087,518.285583 
	C332.424408,520.210938 338.808014,524.364136 345.573212,527.706726 
	C349.568726,529.680847 353.532379,531.719299 357.804749,533.936462 
	C362.288055,549.034912 366.330719,563.977844 373.334259,577.887207 
	C386.859619,604.749023 405.705200,627.374939 428.184296,647.175781 
	C446.498108,663.307678 466.268311,677.394348 487.175781,689.914795 
	C494.175323,694.106506 501.470001,697.791321 508.530029,701.884583 
	C511.679718,703.710693 514.449036,703.709473 517.847046,701.850586 
	C544.067627,687.506104 569.340332,671.742493 592.121460,652.295105 
	C617.294312,630.806091 639.206787,606.602844 653.458557,576.278015 
	C657.140686,568.443237 660.957336,560.634277 662.897400,552.122498 
	C663.673279,548.718262 665.737488,546.729797 668.764343,545.195557 
	C677.231689,540.903442 685.921936,537.045410 694.127686,532.236084 
	C695.810852,531.249573 697.714355,529.686279 699.654297,530.906006 
	C701.837585,532.278809 701.196716,534.768860 700.780518,536.871338 
	C697.668884,552.591675 693.475159,567.977173 687.020386,582.712036 
	C675.111877,609.896545 658.224182,633.578857 637.553955,654.784729 
	C608.780457,684.303833 575.324707,707.361084 539.435913,727.203491 
	C533.166443,730.669739 526.642578,733.668701 520.553589,737.448608 
	C515.857117,740.364014 511.321472,740.374512 506.393768,737.862427 
	C472.294220,720.479126 439.882568,700.460449 410.659027,675.644958 
	C387.157257,655.688354 366.708252,632.953430 351.040436,606.231323 
	C336.450195,581.347046 327.365692,554.544617 323.914459,525.880981 
	C323.620728,523.441711 323.302582,520.888855 324.827087,518.285583 
z"/>
<path fill="#FCF8E9" opacity="1.000000" stroke="none" 
	d="
M324.915588,517.787476 
	C324.375885,529.840515 327.176025,541.205139 330.041565,552.427429 
	C338.731384,586.459778 355.665649,616.129028 378.746521,642.457642 
	C412.310852,680.744934 453.901184,708.197510 498.100281,732.484009 
	C509.023804,738.486267 517.137451,738.436157 528.033264,732.437683 
	C568.649414,710.077026 607.110840,685.047058 639.352722,651.286316 
	C664.465393,624.990662 683.554504,595.082764 694.033203,560.101257 
	C696.819031,550.801025 699.617737,541.358093 700.043945,530.600830 
	C693.197998,534.106689 687.258179,537.901306 680.798401,540.289001 
	C669.722839,544.382812 664.138367,551.626526 660.156433,563.065674 
	C650.270874,591.464233 632.511169,615.191711 611.224304,636.364990 
	C583.195374,664.244202 550.475403,685.439331 516.004822,704.236633 
	C513.562134,705.568665 511.601929,704.823853 509.455505,703.687439 
	C483.348755,689.866333 458.569641,674.045227 435.741119,655.225220 
	C411.757996,635.453369 391.032532,612.886292 376.085602,585.449829 
	C367.450806,569.599915 360.805267,552.950134 358.073975,534.550415 
	C358.593597,534.362732 359.088104,534.581482 359.794617,534.975342 
	C360.036469,536.831055 359.705994,538.627502 361.810974,539.903381 
	C362.399200,540.424194 362.586060,540.821411 362.707703,541.588989 
	C362.556549,543.497498 362.909088,544.933350 364.091309,546.481323 
	C368.208862,555.946045 371.285675,565.442383 375.390289,574.579285 
	C382.228607,589.801453 391.734711,603.159119 402.220093,615.927185 
	C425.665283,644.476379 454.540955,666.542297 485.813385,685.734314 
	C493.339233,690.352966 500.954468,694.795044 508.792542,698.877502 
	C511.933258,700.513428 514.526428,700.616028 517.673950,698.909485 
	C543.075989,685.136902 567.499573,669.804260 589.478699,651.029175 
	C607.738953,635.430969 624.649597,618.376038 637.820801,598.030579 
	C647.551575,582.999390 655.448975,567.078186 660.815979,549.967041 
	C661.956055,546.332214 664.218811,544.040649 667.565796,542.441833 
	C676.726196,538.065918 685.881714,533.672485 694.718750,528.657959 
	C696.796143,527.479187 698.901855,526.296204 701.240601,527.829224 
	C703.675903,529.425537 703.791321,531.862976 703.469421,534.499451 
	C702.091064,545.789673 699.172729,556.720093 695.605225,567.469788 
	C686.138611,595.995178 670.840332,621.157959 651.297058,643.866516 
	C633.366272,664.701416 612.605652,682.383728 590.417236,698.431274 
	C568.644775,714.178040 545.344727,727.441040 521.667664,740.083069 
	C515.863159,743.182251 511.002411,743.247437 504.879425,740.083984 
	C478.480988,726.445312 452.926636,711.500549 429.168518,693.621094 
	C413.716980,681.992859 398.757843,669.722717 385.468781,655.632385 
	C366.630768,635.658569 350.405426,613.782532 338.648590,588.812439 
	C337.935547,587.298096 337.440338,585.708191 336.953796,583.746826 
	C336.811401,583.184204 336.755737,582.961304 336.612183,582.410034 
	C336.461090,581.866455 336.397888,581.651245 336.232056,581.118652 
	C335.855988,579.950623 335.486603,579.149780 334.702026,578.175049 
	C332.188263,572.539062 329.740753,567.233398 328.766815,561.057251 
	C328.687073,559.568115 328.574188,558.449158 327.599701,557.239319 
	C327.228668,556.517334 327.082520,556.075562 326.910950,555.273132 
	C326.666321,553.542480 326.853455,552.082703 325.807526,550.521606 
	C324.877167,548.806885 324.746674,547.280212 324.641632,545.357544 
	C324.660919,540.058472 323.205170,535.362549 322.420227,530.199341 
	C322.130890,529.145447 322.027466,528.431274 321.847351,527.381714 
	C321.698242,526.603516 321.610687,526.163513 321.444397,525.404602 
	C321.294983,524.660767 321.262329,524.233276 321.307556,523.493347 
	C321.508484,522.402588 321.705780,521.624573 321.582642,520.514893 
	C321.565338,520.015808 321.578339,519.815125 321.768372,519.370239 
	C322.289734,518.451904 322.634064,517.777710 323.112762,516.748474 
	C323.739990,516.773743 324.232819,517.153992 324.915588,517.787476 
z"/>
<path fill="#474748" opacity="1.000000" stroke="none" 
	d="
M293.690491,545.391602 
	C294.377563,546.192993 294.637543,546.856750 294.853333,547.761353 
	C293.545715,547.732544 291.655243,548.700806 291.311737,546.584473 
	C291.108032,545.329346 292.220947,545.140808 293.690491,545.391602 
z"/>
<path fill="#000000" opacity="1.000000" stroke="none" 
	d="
M515.571472,250.931519 
	C525.737915,254.950943 536.124268,256.911438 546.168579,259.999115 
	C551.349548,261.591736 556.771301,262.522583 561.859131,264.213989 
	C570.492798,267.084167 579.259705,269.422150 587.968262,271.989899 
	C602.092712,276.154572 616.228577,280.265472 630.445068,284.125153 
	C646.745544,288.550568 662.838867,293.737488 679.033508,298.555359 
	C692.226746,302.480286 705.482117,306.206848 718.591553,310.392242 
	C720.604736,311.034973 722.687988,311.179901 724.689758,311.763794 
	C733.290222,314.272400 734.359741,315.362640 732.596558,323.848938 
	C731.366821,329.768097 731.534302,335.783356 732.348145,341.576996 
	C732.947571,345.844543 731.703613,348.660248 728.329529,349.706360 
	C721.225281,351.908966 715.129333,356.079132 708.395935,358.965210 
	C705.043579,360.402069 703.743408,360.381805 703.947266,356.213593 
	C704.223511,350.565674 703.818115,344.884369 704.095764,339.236603 
	C704.239502,336.313019 702.919678,334.890167 700.526611,334.201416 
	C686.224548,330.085388 671.809387,326.336853 657.611145,321.893311 
	C646.495300,318.414459 635.166199,315.721375 624.035645,312.274414 
	C616.474487,309.932770 608.723633,307.806763 601.031372,305.740692 
	C591.227661,303.107452 581.455261,300.194672 571.708252,297.271454 
	C563.159668,294.707672 554.669983,291.981110 545.970032,289.873871 
	C537.805054,287.896179 529.892212,284.885651 521.842773,282.413239 
	C520.622864,282.038513 519.263672,282.117310 517.550293,281.965881 
	C515.628662,278.888794 512.623962,279.438995 510.633759,280.254333 
	C502.484253,283.593109 493.923920,285.467163 485.556458,288.023560 
	C471.352997,292.362946 456.953003,296.027130 442.749023,300.290894 
	C429.773041,304.186066 416.714569,307.842773 403.799011,311.954773 
	C393.020416,315.386475 382.092682,318.375549 371.246490,321.527496 
	C363.311401,323.833496 355.312439,326.279114 347.173706,328.079468 
	C339.735657,329.724731 332.473877,332.182343 325.162842,334.376740 
	C322.942047,335.043304 321.795197,336.415771 321.903778,339.096619 
	C322.146271,345.085236 321.930939,351.090973 322.000702,357.088623 
	C322.031830,359.763397 321.648621,360.634186 318.653900,359.262329 
	C311.528107,355.998016 304.780060,351.923218 297.244690,349.485931 
	C295.122589,348.799561 293.764038,346.870331 293.896210,343.828156 
	C294.257477,335.512665 294.376892,327.149750 293.875549,318.848846 
	C293.612701,314.495911 295.836639,312.787659 299.055054,312.122253 
	C316.336670,308.549103 332.826843,302.217255 349.877991,297.791870 
	C368.779633,292.886292 387.452271,287.042267 406.271118,281.755951 
	C419.991486,277.901825 433.681610,273.895844 447.388367,269.964478 
	C462.874756,265.522705 478.158966,260.356445 493.708496,256.163025 
	C500.779388,254.256149 507.543793,250.787292 515.571472,250.931519 
z"/>
<path fill="#FBF7E8" opacity="1.000000" stroke="none" 
	d="
M512.467896,281.449860 
	C512.524292,281.416107 512.411438,281.483612 512.467896,281.449860 
z"/>
<path fill="#000000" opacity="1.000000" stroke="none" 
	d="
M506.346558,390.988129 
	C497.513580,388.477173 488.812958,386.294678 479.972198,386.245422 
	C474.827087,386.216797 469.456818,386.384338 464.326385,387.356812 
	C454.799194,389.162659 445.067139,390.060303 435.693939,392.242859 
	C425.285614,394.666382 414.380585,393.941132 404.294769,397.867737 
	C401.002258,399.149597 398.247772,397.006958 395.601501,395.752716 
	C383.632477,390.079834 371.956238,383.789795 359.620789,378.889313 
	C358.533325,378.457306 357.969299,377.451019 357.994354,376.101562 
	C358.068573,372.107117 358.044769,368.110199 358.006653,364.114746 
	C357.993988,362.790100 358.326538,362.342224 359.833801,361.927490 
	C368.318604,359.592773 376.719818,356.955017 385.153320,354.433258 
	C397.506073,350.739655 409.766663,346.688110 422.240326,343.460907 
	C438.474396,339.260834 454.433624,334.125427 470.640900,329.823425 
	C483.402039,326.436157 495.950989,322.169647 508.692505,318.607849 
	C511.215240,317.902679 513.600281,318.335144 516.467896,318.065979 
	C516.907349,318.106445 516.938354,318.049683 516.909912,318.064758 
	C517.953247,318.817413 519.188965,318.378784 520.662964,318.707489 
	C530.557495,322.948578 540.740662,325.056702 550.660950,328.016357 
	C565.765503,332.522736 580.848389,337.103607 595.982788,341.507172 
	C603.981140,343.834320 612.236328,345.377045 620.074646,348.130707 
	C630.112732,351.657196 640.623291,353.550354 650.502808,357.660065 
	C655.169922,359.601501 660.492859,359.855042 665.276123,361.910492 
	C666.806396,362.568085 667.969910,362.937958 667.972351,364.753082 
	C667.977600,368.581757 667.965271,372.410431 667.978455,376.239075 
	C667.983765,377.775116 667.136841,378.373016 665.782898,379.023804 
	C656.159424,383.649811 646.639221,388.507538 637.037354,393.154266 
	C630.710083,396.216248 624.365540,400.192963 616.084656,396.375854 
	C610.889465,393.981079 604.201843,395.027374 598.305969,393.894043 
	C591.970520,392.676178 585.635010,391.561096 579.264282,390.535095 
	C567.723877,388.676544 556.231873,386.821747 544.551208,385.752808 
	C533.812500,384.770081 523.523315,385.798676 513.124023,387.895050 
	C510.641754,388.395477 509.145966,390.564941 506.346558,390.988129 
z"/>
<path fill="#F5F5F6" opacity="1.000000" stroke="none" 
	d="
M520.726746,318.606018 
	C519.732666,318.823364 518.477417,318.793274 517.051819,318.421509 
	C518.076172,318.172760 519.270874,318.265686 520.726746,318.606018 
z"/>
<path fill="#000000" opacity="1.000000" stroke="none" 
	d="
M337.806641,581.916260 
	C339.578278,590.667175 344.712402,597.611023 348.641418,605.061584 
	C355.848724,618.728760 365.331604,630.917236 375.319733,642.590820 
	C384.241333,653.017883 393.775269,662.918701 404.295593,671.880371 
	C416.662659,682.415161 429.180389,692.756714 442.594116,701.879639 
	C449.346405,706.472046 456.220428,710.968018 463.245819,715.218872 
	C473.537842,721.446289 483.924469,727.445496 494.505890,733.158203 
	C499.725220,735.976013 505.277466,738.157166 510.217896,741.569519 
	C511.792511,742.657104 514.174622,742.358215 516.314941,741.261963 
	C529.452881,734.533142 542.534119,727.695190 555.119568,719.979065 
	C570.803406,710.363159 586.207520,700.380310 600.764893,689.019470 
	C614.288147,678.465698 627.407104,667.530762 639.260254,655.169312 
	C651.368958,642.541382 662.765869,629.243103 671.923828,614.270447 
	C677.991699,604.349854 683.401306,594.071655 688.190369,583.398987 
	C694.400940,569.558472 697.800842,554.959595 701.801880,540.493713 
	C702.580017,537.680176 702.041748,534.736572 702.767517,531.786316 
	C703.485107,528.869080 699.593872,526.945374 696.878967,528.637817 
	C687.490784,534.490479 677.513000,539.225952 667.474548,543.765686 
	C661.240845,546.584778 660.977844,552.653625 659.393127,557.544128 
	C655.912964,568.284241 650.717468,578.125000 645.442505,587.946777 
	C638.919373,600.092407 630.692261,611.199219 621.617188,621.463135 
	C614.831116,629.138184 607.360352,636.302490 599.670776,643.222839 
	C592.983337,649.241394 586.176208,655.014832 579.154236,660.629517 
	C569.208435,668.582153 558.674622,675.609131 548.010376,682.508484 
	C537.877258,689.064270 527.195190,694.651428 516.822815,700.778992 
	C514.543945,702.125244 512.861023,702.324646 510.533325,701.103088 
	C494.131622,692.495605 478.425110,682.854736 463.217987,672.211365 
	C451.744476,664.181091 440.629608,655.797058 430.179352,646.551025 
	C418.683105,636.379639 408.048401,625.371094 398.547882,613.221680 
	C392.453491,605.428101 386.592224,597.536682 381.558838,589.033508 
	C373.792847,575.914124 368.042877,561.931824 363.489990,547.126343 
	C362.059784,545.714294 362.617584,544.070984 362.119629,542.314331 
	C362.100769,541.519653 362.065216,541.101624 362.083313,540.372559 
	C364.206482,539.783325 365.796783,540.268738 367.430115,541.881775 
	C378.996094,553.304199 390.734833,564.551331 402.361389,575.912781 
	C417.053497,590.269775 431.018036,605.364929 446.405670,619.020264 
	C451.334625,623.394287 455.494507,628.527283 461.325562,632.000732 
	C467.875885,635.902771 474.760376,638.667969 482.178375,639.956055 
	C492.080902,641.675476 501.979645,641.198486 511.538391,637.962097 
	C518.979736,635.442627 525.591248,631.385193 531.069580,625.632935 
	C532.308838,624.331726 533.013184,623.346375 535.719727,623.683044 
	C552.784607,625.805420 568.518066,622.736511 580.917908,609.559021 
	C582.132568,608.268127 583.076172,606.725830 584.193115,605.338501 
	C588.182190,600.383667 595.493713,596.321228 603.736328,594.030090 
	C616.614075,590.450378 625.698730,582.477051 631.413025,570.322754 
	C633.753418,565.344727 635.368408,560.425232 635.083801,554.486694 
	C642.020020,550.376831 648.693787,546.233398 655.832703,543.175903 
	C662.461426,540.336853 668.346069,536.220581 674.963623,533.357605 
	C682.223206,530.216797 689.010010,525.982788 696.342102,522.890991 
	C698.241638,522.090088 699.948792,520.832825 701.895264,519.462769 
	C712.724609,515.224426 722.316772,509.062775 733.265198,504.358490 
	C731.546326,510.981842 732.749756,517.774719 731.239502,524.351624 
	C730.352478,528.214722 730.790039,532.139038 730.243958,536.064880 
	C728.014404,552.094666 723.918518,567.631348 718.487610,582.754517 
	C713.902710,595.522034 707.887146,607.737488 701.020691,619.508057 
	C692.158997,634.698853 681.779236,648.787781 670.325439,662.070801 
	C659.848267,674.221069 648.073792,685.050293 636.086304,695.739624 
	C627.449646,703.440857 618.250793,710.409424 609.309082,717.655334 
	C599.854431,725.317200 589.146423,731.475281 578.771851,737.947021 
	C567.858887,744.754639 556.858154,751.457703 545.588196,757.646362 
	C535.242310,763.327576 524.460815,768.211670 513.933594,773.569641 
	C511.791595,774.659790 511.491364,772.491211 510.276611,771.987610 
	C499.619934,767.570007 489.727081,761.649658 479.494690,756.403137 
	C470.402069,751.740967 461.136871,747.173767 452.743439,741.583984 
	C441.442993,734.058044 430.027222,726.635681 418.971802,718.682373 
	C394.572937,701.129700 372.805267,680.820984 352.972748,658.367615 
	C343.890137,648.084778 335.149231,637.266174 328.550354,625.369202 
	C321.777557,613.158508 314.516785,601.091675 309.773560,587.673157 
	C306.052094,577.145142 302.059967,566.674011 299.624725,555.837769 
	C297.320984,545.586670 295.196777,535.230591 294.792114,524.549744 
	C294.555847,518.312561 294.163361,512.055786 293.962280,505.081055 
	C303.657684,509.082764 312.483551,513.936951 321.614014,518.986572 
	C321.945374,519.126038 322.002502,519.587280 322.082550,519.805420 
	C322.535492,520.739502 322.484741,521.508179 322.298340,522.631836 
	C322.100250,523.439514 322.047150,523.890991 322.073853,524.676514 
	C322.284210,525.198975 322.414764,525.387573 322.751709,525.851318 
	C322.973785,526.854309 322.989410,527.582153 323.083282,528.665527 
	C323.795898,534.173645 324.814270,539.266785 325.751862,544.762939 
	C326.031891,546.648071 326.105652,548.174622 326.522705,549.869751 
	C328.084167,551.362793 327.171173,553.021118 327.759216,554.807617 
	C327.968964,555.557495 327.980682,555.974976 328.072571,556.695312 
	C329.026123,557.648193 329.532196,558.506653 329.792053,559.860168 
	C329.990967,566.494019 334.177399,571.629578 335.535278,577.875122 
	C336.750366,578.687073 336.353638,579.698853 336.763489,580.818665 
	C336.932953,581.110291 336.959473,581.029297 336.918457,581.040833 
	C337.176483,581.224243 337.433777,581.445496 337.806641,581.916260 
z"/>
<path fill="#FFFFFF" opacity="1.000000" stroke="none" 
	d="
M325.971313,544.686279 
	C323.241699,540.378601 323.672333,535.027100 323.086548,529.453857 
	C324.878082,533.953979 325.414581,539.105591 325.971313,544.686279 
z"/>
<path fill="#F7F6F7" opacity="1.000000" stroke="none" 
	d="
M361.869415,542.126465 
	C363.874908,543.049683 362.631958,544.786865 363.087769,546.566895 
	C361.785461,545.690125 361.170349,544.177429 361.869415,542.126465 
z"/>
<path fill="#FFFFFF" opacity="1.000000" stroke="none" 
	d="
M327.972412,554.737488 
	C326.128021,554.039734 327.377106,552.249573 326.928223,550.432129 
	C328.573792,551.122375 327.824341,552.847778 327.972412,554.737488 
z"/>
<path fill="#FFFFFF" opacity="1.000000" stroke="none" 
	d="
M329.966888,559.769165 
	C329.352448,559.299438 328.748413,558.476685 328.148560,557.326050 
	C329.660858,557.125061 330.045593,558.099670 329.966888,559.769165 
z"/>
<path fill="#FFFFFF" opacity="1.000000" stroke="none" 
	d="
M322.375610,522.795837 
	C322.106201,522.244080 322.058990,521.500183 322.087219,520.389893 
	C323.065948,520.755676 323.153687,521.625427 322.375610,522.795837 
z"/>
<path fill="#FFFFFF" opacity="1.000000" stroke="none" 
	d="
M336.952850,580.756165 
	C335.680969,580.692993 336.083130,579.618469 335.934509,578.390625 
	C336.909149,578.518982 336.995056,579.435425 336.952850,580.756165 
z"/>
<path fill="#FFFFFF" opacity="1.000000" stroke="none" 
	d="
M322.883911,525.900513 
	C322.661804,525.934204 322.365479,525.741882 322.111420,525.280029 
	C322.457855,525.147339 322.676514,525.368652 322.883911,525.900513 
z"/>
<path fill="#FFFFFF" opacity="1.000000" stroke="none" 
	d="
M337.850922,581.879761 
	C337.657745,581.937561 337.357483,581.751831 336.967316,581.309204 
	C337.166229,581.246948 337.455017,581.441528 337.850922,581.879761 
z"/>
</svg>