<svg xmlns="http://www.w3.org/2000/svg" viewBox="0 0 120 120" width="120" height="120">
  <defs>
    <linearGradient id="brainGrad" x1="0%" y1="0%" x2="100%" y2="100%">
      <stop offset="0%" style="stop-color:#a78bfa"/>
      <stop offset="100%" style="stop-color:#c084fc"/>
    </linearGradient>
  </defs>
  <!-- Brain shape (stylized) -->
  <path d="M60 15 
           C35 20 20 45 25 70 
           C30 85 45 95 60 100 
           C75 95 90 85 95 70 
           C100 45 85 20 60 15 Z" 
        fill="url(#brainGrad)" stroke="#7c3aed" stroke-width="2"/>
  <!-- Neural connections / circuit lines -->
  <path d="M40 45 L50 55 L45 65 L55 75" stroke="#c4b5fd" stroke-width="2" fill="none" stroke-linecap="round"/>
  <path d="M80 45 L70 55 L75 65 L65 75" stroke="#c4b5fd" stroke-width="2" fill="none" stroke-linecap="round"/>
  <path d="M60 35 L60 50 M55 50 L65 50" stroke="#c4b5fd" stroke-width="2" stroke-linecap="round"/>
  <!-- Glowing nodes -->
  <circle cx="40" cy="45" r="4" fill="#fbbf24"/>
  <circle cx="80" cy="45" r="4" fill="#fbbf24"/>
  <circle cx="55" cy="75" r="4" fill="#22d3ee"/>
  <circle cx="65" cy="75" r="4" fill="#22d3ee"/>
  <circle cx="60" cy="35" r="4" fill="#34d399"/>
  <!-- Sparkle -->
  <path d="M60 20 L62 26 L68 28 L62 30 L60 36 L58 30 L52 28 L58 26 Z" fill="#fde047"/>
</svg>
