<svg xmlns="http://www.w3.org/2000/svg" viewBox="0 0 120 120" width="120" height="120">
  <defs>
    <linearGradient id="bubbleGrad" x1="0%" y1="0%" x2="100%" y2="100%">
      <stop offset="0%" style="stop-color:#34d399"/>
      <stop offset="100%" style="stop-color:#10b981"/>
    </linearGradient>
  </defs>
  <!-- Chat bubble -->
  <path d="M20 25 L100 25 Q115 25 115 40 L115 75 Q115 90 100 90 L45 90 L25 105 L25 90 L20 90 Q5 90 5 75 L5 40 Q5 25 20 25 Z" 
        fill="url(#bubbleGrad)" stroke="#059669" stroke-width="2"/>
  <!-- Three dots (typing indicator) -->
  <circle cx="35" cy="50" r="5" fill="#064e3b"/>
  <circle cx="60" cy="50" r="5" fill="#064e3b"/>
  <circle cx="85" cy="50" r="5" fill="#064e3b"/>
  <!-- Lightning bolt through bubble -->
  <path d="M70 15 L62 45 L70 45 L58 75 L68 50 L60 50 Z" fill="#fbbf24" stroke="#f59e0b" stroke-width="2"/>
  <!-- Small sparkles -->
  <circle cx="95" cy="35" r="2" fill="#fde047"/>
  <circle cx="15" cy="55" r="2" fill="#fde047"/>
</svg>
