<svg xmlns="http://www.w3.org/2000/svg" viewBox="0 0 120 120" width="120" height="120">
  <defs>
    <linearGradient id="rocketGrad" x1="0%" y1="100%" x2="0%" y2="0%">
      <stop offset="0%" style="stop-color:#f97316"/>
      <stop offset="100%" style="stop-color:#ef4444"/>
    </linearGradient>
    <linearGradient id="flameGrad" x1="0%" y1="0%" x2="0%" y2="100%">
      <stop offset="0%" style="stop-color:#fbbf24"/>
      <stop offset="50%" style="stop-color:#f97316"/>
      <stop offset="100%" style="stop-color:#dc2626"/>
    </linearGradient>
  </defs>
  <!-- Rocket body -->
  <path d="M60 15 L75 95 L60 105 L45 95 Z" fill="url(#rocketGrad)" stroke="#ea580c" stroke-width="2"/>
  <!-- Window -->
  <circle cx="60" cy="45" r="12" fill="#0ea5e9"/>
  <circle cx="60" cy="45" r="8" fill="#38bdf8"/>
  <!-- Fins -->
  <path d="M45 95 L30 120 L45 105 Z" fill="#dc2626"/>
  <path d="M75 95 L90 120 L75 105 Z" fill="#dc2626"/>
  <!-- Flame -->
  <path d="M55 95 Q60 115 65 95 Q60 105 55 95" fill="url(#flameGrad)" opacity="0.9"/>
  <!-- Speed lines -->
  <line x1="20" y1="30" x2="35" y2="35" stroke="#94a3b8" stroke-width="2" stroke-linecap="round" opacity="0.6"/>
  <line x1="25" y1="55" x2="38" y2="58" stroke="#94a3b8" stroke-width="2" stroke-linecap="round" opacity="0.6"/>
  <line x1="85" y1="35" x2="100" y2="30" stroke="#94a3b8" stroke-width="2" stroke-linecap="round" opacity="0.6"/>
  <line x1="82" y1="58" x2="95" y2="55" stroke="#94a3b8" stroke-width="2" stroke-linecap="round" opacity="0.6"/>
  <!-- Zigzag lightning bolt (real-time!) -->
  <path d="M60 5 L55 25 L60 25 L55 45 L65 20 L60 20 Z" fill="#fbbf24" stroke="#f59e0b" stroke-width="1"/>
</svg>
